<svg xmlns="http://www.w3.org/2000/svg" viewBox="0 0 100 100">
  <path d="M 28 20 C 55 12, 85 25, 96 52 C 85 80, 55 92, 28 84 C 10 70, 10 35, 28 20 Z" fill="#506cd0"/>
  <g>
    <text x="50" y="55" text-anchor="middle" dominant-baseline="middle" fill="#FFFFFF" font-weight="bold" font-family="'Times New Roman', Times, serif" font-size="52px">Z</text>
    <path d="M 15 50 C 35 48, 50 60, 65 60 C 75 60, 85 53, 85 53" fill="none" stroke="#506cd0" stroke-width="6" stroke-linecap="round"/>
    <path d="M 22 56 C 38 56, 50 67, 65 67 C 75 67, 82 62, 82 62" fill="none" stroke="#506cd0" stroke-width="6" stroke-linecap="round"/>
    <path d="M 15 50 C 35 48, 50 60, 65 60 C 75 60, 85 53, 85 53" fill="none" stroke="#FFFFFF" stroke-width="2" stroke-linecap="round"/>
    <path d="M 22 56 C 38 56, 50 67, 65 67 C 75 67, 82 62, 82 62" fill="none" stroke="#FFFFFF" stroke-width="2" stroke-linecap="round"/>
  </g>
</svg>
